<?xml version="1.0" standalone="no"?>
<!DOCTYPE svg PUBLIC "-//W3C//DTD SVG 20010904//EN"
 "http://www.w3.org/TR/2001/REC-SVG-20010904/DTD/svg10.dtd">
<svg version="1.0" xmlns="http://www.w3.org/2000/svg"
 width="160.000000pt" height="160.000000pt" viewBox="0 0 160.000000 160.000000"
 preserveAspectRatio="xMidYMid meet">
<metadata>
Created by potrace 1.14, written by Peter Selinger 2001-2017
</metadata>
<g transform="translate(0.000000,160.000000) scale(0.100000,-0.100000)"
fill="#000000" stroke="none">
<path d="M643 1509 c-42 -13 -70 -29 -90 -52 -16 -18 -43 -39 -61 -46 -101
-42 -162 -222 -132 -391 6 -36 12 -85 14 -110 3 -57 16 -119 29 -145 15 -29
17 -65 4 -66 -7 -1 -43 -2 -80 -3 -48 -1 -71 -6 -78 -16 -9 -13 -7 -103 6
-323 3 -50 0 -61 -22 -85 -45 -49 -87 -149 -100 -239 l-5 -32 690 0 690 1 -9
41 c-18 82 -79 214 -108 232 -10 6 -9 44 5 240 13 178 12 181 -95 180 -45 0
-82 3 -82 7 -1 4 -2 14 -3 21 -1 6 4 21 11 33 7 11 20 64 28 117 8 54 17 102
20 107 6 10 12 47 18 121 10 102 -38 226 -113 298 -59 57 -72 65 -130 89 -116
47 -294 56 -407 21z"/>
</g>
</svg>
